<svg xmlns="http://www.w3.org/2000/svg" version="1.1" width="200px" height="200px" xmlns:xlink="http://www.w3.org/1999/xlink">
  <rect width="200" height="200" rx="40" fill="#242424" />
  <g fill="#ffc069">
    <path d="M 135.5,9.5 C 137.144,9.28649 138.644,9.61983 140,10.5C 140.401,14.3164 139.734,17.983 138,21.5C 115.667,72.1667 93.3333,122.833 71,173.5C 68.23,182.722 62.5634,185.388 54,181.5C 52.305,178.227 52.305,174.893 54,171.5C 77.272,124.623 100.272,77.6228 123,30.5C 126.675,23.1418 130.841,16.1418 135.5,9.5 Z"/>
    <path d="M 53.5,58.5 C 55.9477,58.0847 57.2811,59.0847 57.5,61.5C 56.9091,63.2662 56.0758,64.9328 55,66.5C 46.3861,76.9498 37.2195,86.9498 27.5,96.5C 40.3146,104.469 52.148,113.802 63,124.5C 63.9501,134.889 59.4501,138.722 49.5,136C 37.4017,124.789 24.4017,114.789 10.5,106C 6.19555,101.845 5.86222,97.5121 9.5,93C 24.0544,81.239 38.7211,69.739 53.5,58.5 Z"/>
    <path d="M 145.5,58.5 C 159.828,66.3574 172.828,76.1907 184.5,88C 186.901,90.0624 189.567,91.7291 192.5,93C 195.456,97.6647 195.122,101.998 191.5,106C 177.238,114.305 164.238,124.305 152.5,136C 142.55,138.722 138.05,134.889 139,124.5C 149.828,113.833 161.661,104.5 174.5,96.5C 163.052,85.7247 152.719,74.058 143.5,61.5C 144.193,60.4822 144.859,59.4822 145.5,58.5 Z"/>
  </g>
</svg>
